<svg xmlns="http://www.w3.org/2000/svg" xmlns:xlink="http://www.w3.org/1999/xlink" width="500" zoomAndPan="magnify" viewBox="0 0 375 374.999991" height="500" preserveAspectRatio="xMidYMid meet" version="1.0"><defs><g/><clipPath id="f9aef352ee"><path d="M 208 166 L 246 166 L 246 204.675781 L 208 204.675781 Z M 208 166 " clip-rule="nonzero"/></clipPath><clipPath id="9a95654b70"><path d="M 128 166 L 166 166 L 166 204.675781 L 128 204.675781 Z M 128 166 " clip-rule="nonzero"/></clipPath><clipPath id="b118021781"><path d="M 155 97.425781 L 262.5 97.425781 L 262.5 183 L 155 183 Z M 155 97.425781 " clip-rule="nonzero"/></clipPath><clipPath id="58bd25d167"><path d="M 112.5 113 L 183 113 L 183 183 L 112.5 183 Z M 112.5 113 " clip-rule="nonzero"/></clipPath></defs><g clip-path="url(#f9aef352ee)"><path fill="#ffffff" d="M 227.269531 204.253906 C 227.878906 204.253906 228.492188 204.226562 229.101562 204.164062 C 229.707031 204.105469 230.3125 204.015625 230.914062 203.894531 C 231.515625 203.777344 232.105469 203.628906 232.691406 203.449219 C 233.277344 203.273438 233.851562 203.066406 234.417969 202.832031 C 234.984375 202.597656 235.535156 202.335938 236.074219 202.050781 C 236.617188 201.761719 237.140625 201.445312 237.648438 201.105469 C 238.15625 200.765625 238.648438 200.402344 239.121094 200.015625 C 239.59375 199.625 240.046875 199.214844 240.480469 198.78125 C 240.914062 198.351562 241.324219 197.898438 241.710938 197.425781 C 242.097656 196.953125 242.464844 196.460938 242.804688 195.953125 C 243.144531 195.441406 243.457031 194.917969 243.746094 194.378906 C 244.035156 193.839844 244.296875 193.285156 244.53125 192.722656 C 244.765625 192.15625 244.96875 191.582031 245.148438 190.996094 C 245.324219 190.410156 245.472656 189.816406 245.59375 189.21875 C 245.710938 188.617188 245.800781 188.011719 245.863281 187.402344 C 245.921875 186.792969 245.953125 186.183594 245.953125 185.570312 C 245.953125 184.960938 245.921875 184.347656 245.863281 183.742188 C 245.800781 183.132812 245.710938 182.527344 245.59375 181.925781 C 245.472656 181.328125 245.324219 180.734375 245.148438 180.148438 C 244.96875 179.5625 244.765625 178.988281 244.53125 178.421875 C 244.296875 177.855469 244.035156 177.304688 243.746094 176.765625 C 243.457031 176.226562 243.144531 175.699219 242.804688 175.191406 C 242.464844 174.683594 242.097656 174.191406 241.710938 173.71875 C 241.324219 173.246094 240.914062 172.792969 240.480469 172.359375 C 240.046875 171.929688 239.59375 171.519531 239.121094 171.128906 C 238.648438 170.742188 238.15625 170.378906 237.648438 170.039062 C 237.140625 169.699219 236.617188 169.382812 236.074219 169.09375 C 235.535156 168.804688 234.984375 168.546875 234.417969 168.3125 C 233.851562 168.078125 233.277344 167.871094 232.691406 167.691406 C 232.105469 167.515625 231.515625 167.367188 230.914062 167.246094 C 230.3125 167.128906 229.707031 167.039062 229.101562 166.980469 C 228.492188 166.917969 227.878906 166.886719 227.269531 166.886719 C 226.65625 166.886719 226.046875 166.917969 225.4375 166.980469 C 224.828125 167.039062 224.222656 167.128906 223.625 167.246094 C 223.023438 167.367188 222.429688 167.515625 221.84375 167.691406 C 221.257812 167.871094 220.683594 168.078125 220.117188 168.3125 C 219.554688 168.546875 219 168.804688 218.460938 169.09375 C 217.921875 169.382812 217.398438 169.699219 216.890625 170.039062 C 216.378906 170.378906 215.890625 170.742188 215.417969 171.128906 C 214.941406 171.519531 214.492188 171.929688 214.058594 172.359375 C 213.625 172.792969 213.214844 173.246094 212.828125 173.71875 C 212.4375 174.191406 212.074219 174.683594 211.734375 175.191406 C 211.394531 175.699219 211.078125 176.226562 210.792969 176.765625 C 210.503906 177.304688 210.242188 177.855469 210.007812 178.421875 C 209.773438 178.988281 209.566406 179.5625 209.390625 180.148438 C 209.210938 180.734375 209.0625 181.328125 208.945312 181.925781 C 208.824219 182.527344 208.734375 183.132812 208.675781 183.742188 C 208.617188 184.347656 208.585938 184.960938 208.585938 185.570312 C 208.585938 186.183594 208.617188 186.792969 208.675781 187.402344 C 208.734375 188.011719 208.824219 188.617188 208.945312 189.21875 C 209.0625 189.816406 209.210938 190.410156 209.390625 190.996094 C 209.566406 191.582031 209.773438 192.15625 210.007812 192.722656 C 210.242188 193.285156 210.503906 193.839844 210.792969 194.378906 C 211.078125 194.917969 211.394531 195.441406 211.734375 195.953125 C 212.074219 196.460938 212.4375 196.953125 212.828125 197.425781 C 213.214844 197.898438 213.625 198.351562 214.058594 198.78125 C 214.492188 199.214844 214.941406 199.625 215.417969 200.015625 C 215.890625 200.402344 216.378906 200.765625 216.890625 201.105469 C 217.398438 201.445312 217.921875 201.761719 218.460938 202.050781 C 219 202.335938 219.554688 202.597656 220.117188 202.832031 C 220.683594 203.066406 221.257812 203.273438 221.84375 203.449219 C 222.429688 203.628906 223.023438 203.777344 223.625 203.894531 C 224.222656 204.015625 224.828125 204.105469 225.4375 204.164062 C 226.046875 204.226562 226.65625 204.253906 227.269531 204.253906 Z M 227.269531 177.566406 C 227.792969 177.566406 228.316406 177.617188 228.832031 177.71875 C 229.347656 177.820312 229.847656 177.972656 230.332031 178.175781 C 230.820312 178.375 231.28125 178.621094 231.71875 178.914062 C 232.15625 179.207031 232.558594 179.539062 232.929688 179.910156 C 233.300781 180.28125 233.632812 180.6875 233.925781 181.125 C 234.21875 181.558594 234.464844 182.023438 234.667969 182.507812 C 234.867188 182.992188 235.019531 183.492188 235.121094 184.011719 C 235.222656 184.527344 235.277344 185.046875 235.277344 185.570312 C 235.277344 186.097656 235.222656 186.617188 235.121094 187.132812 C 235.019531 187.648438 234.867188 188.148438 234.667969 188.636719 C 234.464844 189.121094 234.21875 189.582031 233.925781 190.019531 C 233.632812 190.457031 233.300781 190.863281 232.929688 191.234375 C 232.558594 191.605469 232.15625 191.9375 231.71875 192.230469 C 231.28125 192.523438 230.820312 192.769531 230.332031 192.96875 C 229.847656 193.171875 229.347656 193.324219 228.832031 193.425781 C 228.316406 193.527344 227.792969 193.578125 227.269531 193.578125 C 226.742188 193.578125 226.222656 193.527344 225.707031 193.425781 C 225.191406 193.324219 224.691406 193.171875 224.203125 192.96875 C 223.71875 192.769531 223.257812 192.523438 222.820312 192.230469 C 222.382812 191.9375 221.980469 191.605469 221.605469 191.234375 C 221.234375 190.863281 220.902344 190.457031 220.609375 190.019531 C 220.320312 189.582031 220.070312 189.121094 219.871094 188.636719 C 219.667969 188.148438 219.519531 187.648438 219.414062 187.132812 C 219.3125 186.617188 219.261719 186.097656 219.261719 185.570312 C 219.261719 185.046875 219.3125 184.527344 219.414062 184.011719 C 219.519531 183.492188 219.667969 182.992188 219.871094 182.507812 C 220.070312 182.023438 220.320312 181.558594 220.609375 181.125 C 220.902344 180.6875 221.234375 180.28125 221.605469 179.910156 C 221.980469 179.539062 222.382812 179.207031 222.820312 178.914062 C 223.257812 178.621094 223.71875 178.375 224.203125 178.175781 C 224.691406 177.972656 225.191406 177.820312 225.707031 177.71875 C 226.222656 177.617188 226.742188 177.566406 227.269531 177.566406 Z M 227.269531 177.566406 " fill-opacity="1" fill-rule="nonzero"/></g><g clip-path="url(#9a95654b70)"><path fill="#ffffff" d="M 147.199219 204.253906 C 147.808594 204.253906 148.417969 204.226562 149.027344 204.164062 C 149.636719 204.105469 150.242188 204.015625 150.84375 203.894531 C 151.441406 203.777344 152.035156 203.628906 152.621094 203.449219 C 153.207031 203.273438 153.78125 203.066406 154.347656 202.832031 C 154.914062 202.597656 155.464844 202.335938 156.003906 202.050781 C 156.542969 201.761719 157.070312 201.445312 157.578125 201.105469 C 158.085938 200.765625 158.578125 200.402344 159.050781 200.015625 C 159.523438 199.625 159.976562 199.214844 160.410156 198.78125 C 160.839844 198.351562 161.25 197.898438 161.640625 197.425781 C 162.027344 196.953125 162.390625 196.460938 162.730469 195.953125 C 163.070312 195.441406 163.386719 194.917969 163.675781 194.378906 C 163.964844 193.839844 164.222656 193.285156 164.457031 192.722656 C 164.691406 192.15625 164.898438 191.582031 165.078125 190.996094 C 165.253906 190.410156 165.402344 189.816406 165.523438 189.21875 C 165.640625 188.617188 165.730469 188.011719 165.789062 187.402344 C 165.851562 186.792969 165.878906 186.183594 165.878906 185.570312 C 165.878906 184.960938 165.851562 184.347656 165.789062 183.742188 C 165.730469 183.132812 165.640625 182.527344 165.523438 181.925781 C 165.402344 181.328125 165.253906 180.734375 165.078125 180.148438 C 164.898438 179.5625 164.691406 178.988281 164.457031 178.421875 C 164.222656 177.855469 163.964844 177.304688 163.675781 176.765625 C 163.386719 176.226562 163.070312 175.699219 162.730469 175.191406 C 162.390625 174.683594 162.027344 174.191406 161.640625 173.71875 C 161.25 173.246094 160.839844 172.792969 160.410156 172.359375 C 159.976562 171.929688 159.523438 171.519531 159.050781 171.128906 C 158.578125 170.742188 158.085938 170.378906 157.578125 170.039062 C 157.070312 169.699219 156.542969 169.382812 156.003906 169.09375 C 155.464844 168.804688 154.914062 168.546875 154.347656 168.3125 C 153.78125 168.078125 153.207031 167.871094 152.621094 167.691406 C 152.035156 167.515625 151.441406 167.367188 150.84375 167.246094 C 150.242188 167.128906 149.636719 167.039062 149.027344 166.980469 C 148.417969 166.917969 147.808594 166.886719 147.199219 166.886719 C 146.585938 166.886719 145.976562 166.917969 145.367188 166.980469 C 144.757812 167.039062 144.152344 167.128906 143.550781 167.246094 C 142.953125 167.367188 142.359375 167.515625 141.773438 167.691406 C 141.1875 167.871094 140.613281 168.078125 140.046875 168.3125 C 139.480469 168.546875 138.929688 168.804688 138.390625 169.09375 C 137.851562 169.382812 137.328125 169.699219 136.816406 170.039062 C 136.308594 170.378906 135.816406 170.742188 135.34375 171.128906 C 134.871094 171.519531 134.417969 171.929688 133.988281 172.359375 C 133.554688 172.792969 133.144531 173.246094 132.753906 173.71875 C 132.367188 174.191406 132.003906 174.683594 131.664062 175.191406 C 131.324219 175.699219 131.007812 176.226562 130.71875 176.765625 C 130.433594 177.304688 130.171875 177.855469 129.9375 178.421875 C 129.703125 178.988281 129.496094 179.5625 129.320312 180.148438 C 129.140625 180.734375 128.992188 181.328125 128.875 181.925781 C 128.753906 182.527344 128.664062 183.132812 128.605469 183.742188 C 128.542969 184.347656 128.515625 184.960938 128.515625 185.570312 C 128.515625 186.183594 128.542969 186.792969 128.605469 187.402344 C 128.664062 188.011719 128.753906 188.617188 128.875 189.21875 C 128.992188 189.816406 129.140625 190.410156 129.320312 190.996094 C 129.496094 191.582031 129.703125 192.15625 129.9375 192.722656 C 130.171875 193.285156 130.433594 193.839844 130.71875 194.378906 C 131.007812 194.917969 131.324219 195.441406 131.664062 195.953125 C 132.003906 196.460938 132.367188 196.953125 132.753906 197.425781 C 133.144531 197.898438 133.554688 198.351562 133.988281 198.78125 C 134.417969 199.214844 134.871094 199.625 135.34375 200.015625 C 135.816406 200.402344 136.308594 200.765625 136.816406 201.105469 C 137.328125 201.445312 137.851562 201.761719 138.390625 202.050781 C 138.929688 202.335938 139.480469 202.597656 140.046875 202.832031 C 140.613281 203.066406 141.1875 203.273438 141.773438 203.449219 C 142.359375 203.628906 142.953125 203.777344 143.550781 203.894531 C 144.152344 204.015625 144.757812 204.105469 145.367188 204.164062 C 145.976562 204.226562 146.585938 204.253906 147.199219 204.253906 Z M 147.199219 177.566406 C 147.722656 177.566406 148.242188 177.617188 148.757812 177.71875 C 149.273438 177.820312 149.777344 177.972656 150.261719 178.175781 C 150.746094 178.375 151.207031 178.621094 151.644531 178.914062 C 152.082031 179.207031 152.488281 179.539062 152.859375 179.910156 C 153.230469 180.28125 153.5625 180.6875 153.855469 181.125 C 154.148438 181.558594 154.394531 182.023438 154.59375 182.507812 C 154.796875 182.992188 154.949219 183.492188 155.050781 184.011719 C 155.152344 184.527344 155.203125 185.046875 155.203125 185.570312 C 155.203125 186.097656 155.152344 186.617188 155.050781 187.132812 C 154.949219 187.648438 154.796875 188.148438 154.59375 188.636719 C 154.394531 189.121094 154.148438 189.582031 153.855469 190.019531 C 153.5625 190.457031 153.230469 190.863281 152.859375 191.234375 C 152.488281 191.605469 152.082031 191.9375 151.644531 192.230469 C 151.207031 192.523438 150.746094 192.769531 150.261719 192.96875 C 149.777344 193.171875 149.273438 193.324219 148.757812 193.425781 C 148.242188 193.527344 147.722656 193.578125 147.199219 193.578125 C 146.671875 193.578125 146.152344 193.527344 145.636719 193.425781 C 145.121094 193.324219 144.617188 193.171875 144.132812 192.96875 C 143.648438 192.769531 143.1875 192.523438 142.75 192.230469 C 142.3125 191.9375 141.90625 191.605469 141.535156 191.234375 C 141.164062 190.863281 140.832031 190.457031 140.539062 190.019531 C 140.246094 189.582031 140 189.121094 139.800781 188.636719 C 139.597656 188.148438 139.445312 187.648438 139.34375 187.132812 C 139.242188 186.617188 139.191406 186.097656 139.191406 185.570312 C 139.191406 185.046875 139.242188 184.527344 139.34375 184.011719 C 139.445312 183.492188 139.597656 182.992188 139.800781 182.507812 C 140 182.023438 140.246094 181.558594 140.539062 181.125 C 140.832031 180.6875 141.164062 180.28125 141.535156 179.910156 C 141.90625 179.539062 142.3125 179.207031 142.75 178.914062 C 143.1875 178.621094 143.648438 178.375 144.132812 178.175781 C 144.617188 177.972656 145.121094 177.820312 145.636719 177.71875 C 146.152344 177.617188 146.671875 177.566406 147.199219 177.566406 Z M 147.199219 177.566406 " fill-opacity="1" fill-rule="nonzero"/></g><g clip-path="url(#b118021781)"><path fill="#ffffff" d="M 176.558594 182.902344 L 193.210938 182.902344 C 193.5625 182.902344 193.910156 182.867188 194.253906 182.800781 C 194.597656 182.730469 194.929688 182.628906 195.253906 182.496094 C 195.578125 182.363281 195.886719 182.199219 196.175781 182.003906 C 196.46875 181.808594 196.738281 181.585938 196.984375 181.339844 C 197.234375 181.089844 197.457031 180.820312 197.648438 180.53125 C 197.84375 180.238281 198.007812 179.929688 198.144531 179.609375 C 198.277344 179.285156 198.378906 178.949219 198.445312 178.605469 C 198.515625 178.261719 198.550781 177.914062 198.550781 177.566406 C 198.550781 177.214844 198.515625 176.867188 198.445312 176.523438 C 198.378906 176.179688 198.277344 175.847656 198.144531 175.523438 C 198.007812 175.199219 197.84375 174.890625 197.648438 174.597656 C 197.457031 174.308594 197.234375 174.039062 196.984375 173.789062 C 196.738281 173.542969 196.46875 173.320312 196.175781 173.125 C 195.886719 172.929688 195.578125 172.765625 195.253906 172.632812 C 194.929688 172.5 194.597656 172.398438 194.253906 172.328125 C 193.910156 172.261719 193.5625 172.226562 193.210938 172.226562 L 180.878906 172.226562 L 167.160156 108.167969 L 236.558594 108.167969 L 250.007812 172.226562 L 246.433594 172.226562 C 246.082031 172.226562 245.734375 172.261719 245.390625 172.328125 C 245.046875 172.398438 244.714844 172.5 244.390625 172.632812 C 244.066406 172.765625 243.757812 172.929688 243.464844 173.125 C 243.175781 173.320312 242.90625 173.542969 242.65625 173.789062 C 242.410156 174.039062 242.1875 174.308594 241.992188 174.597656 C 241.800781 174.890625 241.632812 175.199219 241.5 175.523438 C 241.367188 175.847656 241.265625 176.179688 241.195312 176.523438 C 241.128906 176.867188 241.09375 177.214844 241.09375 177.566406 C 241.09375 177.914062 241.128906 178.261719 241.195312 178.605469 C 241.265625 178.949219 241.367188 179.285156 241.5 179.609375 C 241.632812 179.929688 241.800781 180.238281 241.992188 180.53125 C 242.1875 180.820312 242.410156 181.089844 242.65625 181.339844 C 242.90625 181.585938 243.175781 181.808594 243.464844 182.003906 C 243.757812 182.199219 244.066406 182.363281 244.390625 182.496094 C 244.714844 182.628906 245.046875 182.730469 245.390625 182.800781 C 245.734375 182.867188 246.082031 182.902344 246.433594 182.902344 L 256.628906 182.902344 C 257.03125 182.910156 257.429688 182.875 257.824219 182.792969 C 258.21875 182.710938 258.601562 182.589844 258.96875 182.421875 C 259.332031 182.253906 259.675781 182.046875 259.996094 181.800781 C 260.316406 181.554688 260.605469 181.277344 260.863281 180.964844 C 261.117188 180.65625 261.335938 180.320312 261.519531 179.960938 C 261.699219 179.601562 261.835938 179.222656 261.933594 178.832031 C 262.027344 178.441406 262.078125 178.042969 262.085938 177.640625 C 262.089844 177.238281 262.050781 176.839844 261.964844 176.445312 L 245.953125 101.710938 C 245.820312 101.105469 245.59375 100.535156 245.265625 100.007812 C 244.9375 99.484375 244.527344 99.027344 244.042969 98.640625 C 243.554688 98.257812 243.015625 97.964844 242.429688 97.769531 C 241.839844 97.570312 241.234375 97.480469 240.613281 97.492188 L 160.542969 97.492188 C 160.140625 97.484375 159.742188 97.519531 159.347656 97.601562 C 158.949219 97.683594 158.570312 97.808594 158.203125 97.976562 C 157.835938 98.144531 157.492188 98.351562 157.171875 98.59375 C 156.855469 98.839844 156.566406 99.117188 156.308594 99.429688 C 156.050781 99.742188 155.832031 100.074219 155.652344 100.4375 C 155.472656 100.796875 155.332031 101.171875 155.238281 101.566406 C 155.140625 101.957031 155.089844 102.355469 155.085938 102.757812 C 155.082031 103.160156 155.121094 103.558594 155.203125 103.953125 L 171.21875 178.6875 C 171.347656 179.292969 171.578125 179.859375 171.90625 180.386719 C 172.234375 180.914062 172.640625 181.371094 173.128906 181.753906 C 173.617188 182.140625 174.152344 182.429688 174.742188 182.628906 C 175.332031 182.824219 175.9375 182.917969 176.558594 182.902344 Z M 176.558594 182.902344 " fill-opacity="1" fill-rule="nonzero"/></g><path fill="#ffffff" d="M 193.265625 182.902344 L 216.59375 182.902344 C 216.941406 182.902344 217.289062 182.867188 217.632812 182.800781 C 217.976562 182.730469 218.3125 182.628906 218.636719 182.496094 C 218.960938 182.363281 219.265625 182.199219 219.558594 182.003906 C 219.851562 181.808594 220.121094 181.585938 220.367188 181.339844 C 220.613281 181.089844 220.835938 180.820312 221.03125 180.53125 C 221.226562 180.238281 221.390625 179.929688 221.523438 179.609375 C 221.660156 179.285156 221.757812 178.949219 221.828125 178.605469 C 221.894531 178.261719 221.929688 177.914062 221.929688 177.566406 C 221.929688 177.214844 221.894531 176.867188 221.828125 176.523438 C 221.757812 176.179688 221.660156 175.847656 221.523438 175.523438 C 221.390625 175.199219 221.226562 174.890625 221.03125 174.597656 C 220.835938 174.308594 220.613281 174.039062 220.367188 173.789062 C 220.121094 173.542969 219.851562 173.320312 219.558594 173.125 C 219.265625 172.929688 218.960938 172.765625 218.636719 172.632812 C 218.3125 172.5 217.976562 172.398438 217.632812 172.328125 C 217.289062 172.261719 216.941406 172.226562 216.59375 172.226562 L 193.265625 172.226562 C 192.914062 172.226562 192.566406 172.261719 192.222656 172.328125 C 191.878906 172.398438 191.546875 172.5 191.222656 172.632812 C 190.898438 172.765625 190.589844 172.929688 190.300781 173.125 C 190.007812 173.320312 189.738281 173.542969 189.492188 173.789062 C 189.242188 174.039062 189.019531 174.308594 188.828125 174.597656 C 188.632812 174.890625 188.46875 175.199219 188.332031 175.523438 C 188.199219 175.847656 188.097656 176.179688 188.03125 176.523438 C 187.960938 176.867188 187.925781 177.214844 187.925781 177.566406 C 187.925781 177.914062 187.960938 178.261719 188.03125 178.605469 C 188.097656 178.949219 188.199219 179.285156 188.332031 179.609375 C 188.46875 179.929688 188.632812 180.238281 188.828125 180.53125 C 189.019531 180.820312 189.242188 181.089844 189.492188 181.339844 C 189.738281 181.585938 190.007812 181.808594 190.300781 182.003906 C 190.589844 182.199219 190.898438 182.363281 191.222656 182.496094 C 191.546875 182.628906 191.878906 182.730469 192.222656 182.800781 C 192.566406 182.867188 192.914062 182.902344 193.265625 182.902344 Z M 193.265625 182.902344 " fill-opacity="1" fill-rule="nonzero"/><path fill="#ffffff" d="M 237.945312 182.902344 L 246.433594 182.902344 C 246.78125 182.902344 247.128906 182.867188 247.472656 182.800781 C 247.816406 182.730469 248.152344 182.628906 248.476562 182.496094 C 248.800781 182.363281 249.105469 182.199219 249.398438 182.003906 C 249.691406 181.808594 249.960938 181.585938 250.207031 181.339844 C 250.453125 181.089844 250.675781 180.820312 250.871094 180.53125 C 251.066406 180.238281 251.230469 179.929688 251.363281 179.609375 C 251.5 179.285156 251.597656 178.949219 251.667969 178.605469 C 251.734375 178.261719 251.769531 177.914062 251.769531 177.566406 C 251.769531 177.214844 251.734375 176.867188 251.667969 176.523438 C 251.597656 176.179688 251.5 175.847656 251.363281 175.523438 C 251.230469 175.199219 251.066406 174.890625 250.871094 174.597656 C 250.675781 174.308594 250.453125 174.039062 250.207031 173.789062 C 249.960938 173.542969 249.691406 173.320312 249.398438 173.125 C 249.105469 172.929688 248.800781 172.765625 248.476562 172.632812 C 248.152344 172.5 247.816406 172.398438 247.472656 172.328125 C 247.128906 172.261719 246.78125 172.226562 246.433594 172.226562 L 237.945312 172.226562 C 237.59375 172.226562 237.246094 172.261719 236.902344 172.328125 C 236.558594 172.398438 236.226562 172.5 235.902344 172.632812 C 235.578125 172.765625 235.269531 172.929688 234.980469 173.125 C 234.6875 173.320312 234.417969 173.542969 234.171875 173.789062 C 233.921875 174.039062 233.699219 174.308594 233.507812 174.597656 C 233.3125 174.890625 233.148438 175.199219 233.011719 175.523438 C 232.878906 175.847656 232.777344 176.179688 232.710938 176.523438 C 232.640625 176.867188 232.605469 177.214844 232.605469 177.566406 C 232.605469 177.914062 232.640625 178.261719 232.710938 178.605469 C 232.777344 178.949219 232.878906 179.285156 233.011719 179.609375 C 233.148438 179.929688 233.3125 180.238281 233.507812 180.53125 C 233.699219 180.820312 233.921875 181.089844 234.171875 181.339844 C 234.417969 181.585938 234.6875 181.808594 234.980469 182.003906 C 235.269531 182.199219 235.578125 182.363281 235.902344 182.496094 C 236.226562 182.628906 236.558594 182.730469 236.902344 182.800781 C 237.246094 182.867188 237.59375 182.902344 237.945312 182.902344 Z M 237.945312 182.902344 " fill-opacity="1" fill-rule="nonzero"/><g clip-path="url(#58bd25d167)"><path fill="#ffffff" d="M 123.175781 182.902344 L 136.519531 182.902344 C 136.871094 182.902344 137.21875 182.867188 137.5625 182.800781 C 137.90625 182.730469 138.242188 182.628906 138.5625 182.496094 C 138.886719 182.363281 139.195312 182.199219 139.488281 182.003906 C 139.777344 181.808594 140.046875 181.585938 140.296875 181.339844 C 140.542969 181.089844 140.765625 180.820312 140.960938 180.53125 C 141.15625 180.238281 141.320312 179.929688 141.453125 179.609375 C 141.585938 179.285156 141.6875 178.949219 141.757812 178.605469 C 141.824219 178.261719 141.859375 177.914062 141.859375 177.566406 C 141.859375 177.214844 141.824219 176.867188 141.757812 176.523438 C 141.6875 176.179688 141.585938 175.847656 141.453125 175.523438 C 141.320312 175.199219 141.15625 174.890625 140.960938 174.597656 C 140.765625 174.308594 140.542969 174.039062 140.296875 173.789062 C 140.046875 173.542969 139.777344 173.320312 139.488281 173.125 C 139.195312 172.929688 138.886719 172.765625 138.5625 172.632812 C 138.242188 172.5 137.90625 172.398438 137.5625 172.328125 C 137.21875 172.261719 136.871094 172.226562 136.519531 172.226562 L 127.714844 172.226562 L 123.496094 147.03125 L 141.753906 124.183594 L 159.742188 124.183594 L 169.9375 172.226562 L 157.875 172.226562 C 157.523438 172.226562 157.175781 172.261719 156.832031 172.328125 C 156.488281 172.398438 156.15625 172.5 155.832031 172.632812 C 155.507812 172.765625 155.199219 172.929688 154.90625 173.125 C 154.617188 173.320312 154.347656 173.542969 154.097656 173.789062 C 153.851562 174.039062 153.628906 174.308594 153.433594 174.597656 C 153.242188 174.890625 153.074219 175.199219 152.941406 175.523438 C 152.808594 175.847656 152.707031 176.179688 152.636719 176.523438 C 152.570312 176.867188 152.535156 177.214844 152.535156 177.566406 C 152.535156 177.914062 152.570312 178.261719 152.636719 178.605469 C 152.707031 178.949219 152.808594 179.285156 152.941406 179.609375 C 153.074219 179.929688 153.242188 180.238281 153.433594 180.53125 C 153.628906 180.820312 153.851562 181.089844 154.097656 181.339844 C 154.347656 181.585938 154.617188 181.808594 154.90625 182.003906 C 155.199219 182.199219 155.507812 182.363281 155.832031 182.496094 C 156.15625 182.628906 156.488281 182.730469 156.832031 182.800781 C 157.175781 182.867188 157.523438 182.902344 157.875 182.902344 L 176.558594 182.902344 C 176.960938 182.910156 177.359375 182.875 177.753906 182.792969 C 178.148438 182.710938 178.53125 182.589844 178.894531 182.421875 C 179.261719 182.253906 179.605469 182.046875 179.925781 181.800781 C 180.246094 181.554688 180.535156 181.277344 180.789062 180.964844 C 181.046875 180.65625 181.265625 180.320312 181.449219 179.960938 C 181.628906 179.601562 181.765625 179.222656 181.863281 178.832031 C 181.957031 178.441406 182.007812 178.042969 182.015625 177.640625 C 182.019531 177.238281 181.980469 176.839844 181.894531 176.445312 L 169.402344 118.046875 C 169.273438 117.4375 169.042969 116.871094 168.714844 116.34375 C 168.386719 115.816406 167.980469 115.359375 167.492188 114.976562 C 167.007812 114.589844 166.46875 114.300781 165.878906 114.101562 C 165.292969 113.90625 164.6875 113.8125 164.066406 113.828125 L 139.191406 113.507812 C 138.367188 113.503906 137.589844 113.679688 136.847656 114.035156 C 136.109375 114.390625 135.484375 114.890625 134.972656 115.535156 L 113.621094 142.226562 C 113.148438 142.8125 112.816406 143.464844 112.621094 144.191406 C 112.425781 144.914062 112.386719 145.648438 112.5 146.390625 L 117.839844 178.417969 C 117.941406 179.050781 118.148438 179.644531 118.464844 180.199219 C 118.78125 180.757812 119.183594 181.242188 119.675781 181.652344 C 120.164062 182.0625 120.710938 182.378906 121.3125 182.59375 C 121.914062 182.808594 122.535156 182.910156 123.175781 182.902344 Z M 123.175781 182.902344 " fill-opacity="1" fill-rule="nonzero"/></g><path fill="#ffffff" d="M 197.910156 124.183594 L 256.628906 124.183594 C 256.980469 124.183594 257.324219 124.148438 257.667969 124.082031 C 258.011719 124.011719 258.347656 123.910156 258.671875 123.777344 C 258.996094 123.644531 259.300781 123.480469 259.59375 123.285156 C 259.886719 123.089844 260.15625 122.867188 260.402344 122.621094 C 260.652344 122.371094 260.871094 122.101562 261.066406 121.8125 C 261.261719 121.519531 261.425781 121.210938 261.558594 120.890625 C 261.695312 120.566406 261.796875 120.230469 261.863281 119.886719 C 261.933594 119.542969 261.964844 119.195312 261.964844 118.847656 C 261.964844 118.496094 261.933594 118.148438 261.863281 117.804688 C 261.796875 117.460938 261.695312 117.125 261.558594 116.804688 C 261.425781 116.480469 261.261719 116.171875 261.066406 115.878906 C 260.871094 115.589844 260.652344 115.320312 260.402344 115.070312 C 260.15625 114.824219 259.886719 114.601562 259.59375 114.40625 C 259.300781 114.210938 258.996094 114.046875 258.671875 113.914062 C 258.347656 113.78125 258.011719 113.679688 257.667969 113.609375 C 257.324219 113.542969 256.980469 113.507812 256.628906 113.507812 L 197.910156 113.507812 C 197.558594 113.507812 197.210938 113.542969 196.867188 113.609375 C 196.523438 113.679688 196.191406 113.78125 195.867188 113.914062 C 195.542969 114.046875 195.234375 114.210938 194.945312 114.40625 C 194.652344 114.601562 194.382812 114.824219 194.132812 115.070312 C 193.886719 115.320312 193.664062 115.589844 193.472656 115.878906 C 193.277344 116.171875 193.113281 116.480469 192.976562 116.804688 C 192.84375 117.125 192.742188 117.460938 192.671875 117.804688 C 192.605469 118.148438 192.570312 118.496094 192.570312 118.847656 C 192.570312 119.195312 192.605469 119.542969 192.671875 119.886719 C 192.742188 120.230469 192.84375 120.566406 192.976562 120.890625 C 193.113281 121.210938 193.277344 121.519531 193.472656 121.8125 C 193.664062 122.101562 193.886719 122.371094 194.132812 122.621094 C 194.382812 122.867188 194.652344 123.089844 194.945312 123.285156 C 195.234375 123.480469 195.542969 123.644531 195.867188 123.777344 C 196.191406 123.910156 196.523438 124.011719 196.867188 124.082031 C 197.210938 124.148438 197.558594 124.183594 197.910156 124.183594 Z M 197.910156 124.183594 " fill-opacity="1" fill-rule="nonzero"/><path fill="#ffffff" d="M 203.246094 140.199219 L 256.628906 140.199219 C 256.980469 140.199219 257.324219 140.164062 257.667969 140.09375 C 258.011719 140.027344 258.347656 139.925781 258.671875 139.792969 C 258.996094 139.65625 259.300781 139.492188 259.59375 139.296875 C 259.886719 139.105469 260.15625 138.882812 260.402344 138.632812 C 260.652344 138.386719 260.871094 138.117188 261.066406 137.824219 C 261.261719 137.535156 261.425781 137.226562 261.558594 136.902344 C 261.695312 136.578125 261.796875 136.246094 261.863281 135.902344 C 261.933594 135.558594 261.964844 135.210938 261.964844 134.859375 C 261.964844 134.507812 261.933594 134.164062 261.863281 133.820312 C 261.796875 133.476562 261.695312 133.140625 261.558594 132.816406 C 261.425781 132.492188 261.261719 132.1875 261.066406 131.894531 C 260.871094 131.601562 260.652344 131.332031 260.402344 131.085938 C 260.15625 130.835938 259.886719 130.617188 259.59375 130.421875 C 259.300781 130.226562 258.996094 130.0625 258.671875 129.929688 C 258.347656 129.792969 258.011719 129.691406 257.667969 129.625 C 257.324219 129.554688 256.980469 129.523438 256.628906 129.523438 L 203.246094 129.523438 C 202.898438 129.523438 202.550781 129.554688 202.207031 129.625 C 201.863281 129.691406 201.527344 129.792969 201.203125 129.929688 C 200.878906 130.0625 200.574219 130.226562 200.28125 130.421875 C 199.988281 130.617188 199.71875 130.835938 199.472656 131.085938 C 199.226562 131.332031 199.003906 131.601562 198.808594 131.894531 C 198.613281 132.1875 198.449219 132.492188 198.316406 132.816406 C 198.179688 133.140625 198.082031 133.476562 198.011719 133.820312 C 197.945312 134.164062 197.910156 134.507812 197.910156 134.859375 C 197.910156 135.210938 197.945312 135.558594 198.011719 135.902344 C 198.082031 136.246094 198.179688 136.578125 198.316406 136.902344 C 198.449219 137.226562 198.613281 137.535156 198.808594 137.824219 C 199.003906 138.117188 199.226562 138.386719 199.472656 138.632812 C 199.71875 138.882812 199.988281 139.105469 200.28125 139.296875 C 200.574219 139.492188 200.878906 139.65625 201.203125 139.792969 C 201.527344 139.925781 201.863281 140.027344 202.207031 140.09375 C 202.550781 140.164062 202.898438 140.199219 203.246094 140.199219 Z M 203.246094 140.199219 " fill-opacity="1" fill-rule="nonzero"/><path fill="#ffffff" d="M 208.585938 156.210938 L 256.628906 156.210938 C 256.980469 156.210938 257.324219 156.179688 257.667969 156.109375 C 258.011719 156.042969 258.347656 155.941406 258.671875 155.804688 C 258.996094 155.671875 259.300781 155.507812 259.59375 155.3125 C 259.886719 155.117188 260.15625 154.898438 260.402344 154.648438 C 260.652344 154.402344 260.871094 154.132812 261.066406 153.839844 C 261.261719 153.546875 261.425781 153.242188 261.558594 152.917969 C 261.695312 152.59375 261.796875 152.257812 261.863281 151.914062 C 261.933594 151.570312 261.964844 151.226562 261.964844 150.875 C 261.964844 150.523438 261.933594 150.175781 261.863281 149.832031 C 261.796875 149.488281 261.695312 149.15625 261.558594 148.832031 C 261.425781 148.507812 261.261719 148.199219 261.066406 147.910156 C 260.871094 147.617188 260.652344 147.347656 260.402344 147.101562 C 260.15625 146.851562 259.886719 146.628906 259.59375 146.4375 C 259.300781 146.242188 258.996094 146.078125 258.671875 145.941406 C 258.347656 145.808594 258.011719 145.707031 257.667969 145.640625 C 257.324219 145.570312 256.980469 145.535156 256.628906 145.535156 L 208.585938 145.535156 C 208.234375 145.535156 207.886719 145.570312 207.542969 145.640625 C 207.199219 145.707031 206.867188 145.808594 206.542969 145.941406 C 206.21875 146.078125 205.910156 146.242188 205.621094 146.4375 C 205.328125 146.628906 205.058594 146.851562 204.8125 147.101562 C 204.5625 147.347656 204.339844 147.617188 204.148438 147.910156 C 203.953125 148.199219 203.789062 148.507812 203.652344 148.832031 C 203.519531 149.15625 203.417969 149.488281 203.351562 149.832031 C 203.28125 150.175781 203.246094 150.523438 203.246094 150.875 C 203.246094 151.226562 203.28125 151.570312 203.351562 151.914062 C 203.417969 152.257812 203.519531 152.59375 203.652344 152.917969 C 203.789062 153.242188 203.953125 153.546875 204.148438 153.839844 C 204.339844 154.132812 204.5625 154.402344 204.8125 154.648438 C 205.058594 154.898438 205.328125 155.117188 205.621094 155.3125 C 205.910156 155.507812 206.21875 155.671875 206.542969 155.804688 C 206.867188 155.941406 207.199219 156.042969 207.542969 156.109375 C 207.886719 156.179688 208.234375 156.210938 208.585938 156.210938 Z M 208.585938 156.210938 " fill-opacity="1" fill-rule="nonzero"/><path fill="#ffffff" d="M 149.867188 140.199219 L 165.878906 140.199219 C 166.230469 140.199219 166.578125 140.164062 166.921875 140.09375 C 167.265625 140.027344 167.601562 139.925781 167.921875 139.792969 C 168.246094 139.65625 168.554688 139.492188 168.847656 139.296875 C 169.136719 139.105469 169.40625 138.882812 169.65625 138.632812 C 169.902344 138.386719 170.125 138.117188 170.320312 137.824219 C 170.515625 137.535156 170.679688 137.226562 170.8125 136.902344 C 170.945312 136.578125 171.046875 136.246094 171.117188 135.902344 C 171.183594 135.558594 171.21875 135.210938 171.21875 134.859375 C 171.21875 134.507812 171.183594 134.164062 171.117188 133.820312 C 171.046875 133.476562 170.945312 133.140625 170.8125 132.816406 C 170.679688 132.492188 170.515625 132.1875 170.320312 131.894531 C 170.125 131.601562 169.902344 131.332031 169.65625 131.085938 C 169.40625 130.835938 169.136719 130.617188 168.847656 130.421875 C 168.554688 130.226562 168.246094 130.0625 167.921875 129.929688 C 167.601562 129.792969 167.265625 129.691406 166.921875 129.625 C 166.578125 129.554688 166.230469 129.523438 165.878906 129.523438 L 149.867188 129.523438 C 149.515625 129.523438 149.167969 129.554688 148.824219 129.625 C 148.480469 129.691406 148.148438 129.792969 147.824219 129.929688 C 147.5 130.0625 147.191406 130.226562 146.902344 130.421875 C 146.609375 130.617188 146.339844 130.835938 146.09375 131.085938 C 145.84375 131.332031 145.621094 131.601562 145.429688 131.894531 C 145.234375 132.1875 145.070312 132.492188 144.933594 132.816406 C 144.800781 133.140625 144.699219 133.476562 144.632812 133.820312 C 144.5625 134.164062 144.527344 134.507812 144.527344 134.859375 C 144.527344 135.210938 144.5625 135.558594 144.632812 135.902344 C 144.699219 136.246094 144.800781 136.578125 144.933594 136.902344 C 145.070312 137.226562 145.234375 137.535156 145.429688 137.824219 C 145.621094 138.117188 145.84375 138.386719 146.09375 138.632812 C 146.339844 138.882812 146.609375 139.105469 146.902344 139.296875 C 147.191406 139.492188 147.5 139.65625 147.824219 139.792969 C 148.148438 139.925781 148.480469 140.027344 148.824219 140.09375 C 149.167969 140.164062 149.515625 140.199219 149.867188 140.199219 Z M 149.867188 140.199219 " fill-opacity="1" fill-rule="nonzero"/><g fill="#ffffff" fill-opacity="1"><g transform="translate(67.510276, 247.692274)"><g><path d="M 2.65625 -26.59375 L 14.09375 -26.59375 C 18.28125 -26.59375 21.679688 -25.363281 24.296875 -22.90625 C 26.921875 -20.457031 28.234375 -17.253906 28.234375 -13.296875 C 28.234375 -9.367188 26.898438 -6.171875 24.234375 -3.703125 C 21.578125 -1.234375 18.109375 0 13.828125 0 L 2.65625 0 Z M 9.421875 -21.203125 L 9.421875 -5.390625 L 14.25 -5.390625 C 16.320312 -5.390625 18.023438 -6.117188 19.359375 -7.578125 C 20.691406 -9.035156 21.359375 -10.929688 21.359375 -13.265625 C 21.359375 -15.597656 20.660156 -17.503906 19.265625 -18.984375 C 17.867188 -20.460938 16.097656 -21.203125 13.953125 -21.203125 Z M 9.421875 -21.203125 "/></g></g></g><g fill="#ffffff" fill-opacity="1"><g transform="translate(103.110323, 247.692274)"><g><path d="M 23.484375 -21.28125 L 9.421875 -21.28125 L 9.421875 -16 L 22.109375 -16 L 22.109375 -10.671875 L 9.421875 -10.671875 L 9.421875 -5.3125 L 23.90625 -5.3125 L 23.90625 0 L 2.65625 0 L 2.65625 -26.59375 L 23.484375 -26.59375 Z M 23.484375 -21.28125 "/></g></g></g><g fill="#ffffff" fill-opacity="1"><g transform="translate(135.177098, 247.692274)"><g><path d="M 9.421875 -5.65625 L 20.703125 -5.65625 L 20.703125 0 L 2.65625 0 L 2.65625 -26.59375 L 9.421875 -26.59375 Z M 9.421875 -5.65625 "/></g></g></g><g fill="#ffffff" fill-opacity="1"><g transform="translate(162.912751, 247.692274)"><g><path d="M 9.421875 0 L 2.65625 0 L 2.65625 -26.59375 L 9.421875 -26.59375 Z M 9.421875 0 "/></g></g></g><g fill="#ffffff" fill-opacity="1"><g transform="translate(181.454284, 247.692274)"><g><path d="M 17.296875 0 L 10.296875 0 L -0.03125 -26.59375 L 7.1875 -26.59375 L 13.984375 -7.03125 L 20.78125 -26.59375 L 27.734375 -26.59375 Z M 17.296875 0 "/></g></g></g><g fill="#ffffff" fill-opacity="1"><g transform="translate(215.610628, 247.692274)"><g><path d="M 23.484375 -21.28125 L 9.421875 -21.28125 L 9.421875 -16 L 22.109375 -16 L 22.109375 -10.671875 L 9.421875 -10.671875 L 9.421875 -5.3125 L 23.90625 -5.3125 L 23.90625 0 L 2.65625 0 L 2.65625 -26.59375 L 23.484375 -26.59375 Z M 23.484375 -21.28125 "/></g></g></g><g fill="#ffffff" fill-opacity="1"><g transform="translate(247.677406, 247.692274)"><g><path d="M 18.703125 0 L 14.75 -7.484375 L 9.421875 -7.484375 L 9.421875 0 L 2.65625 0 L 2.65625 -26.59375 L 14.546875 -26.59375 C 18.078125 -26.59375 20.800781 -25.789062 22.71875 -24.1875 C 24.644531 -22.582031 25.609375 -20.296875 25.609375 -17.328125 C 25.609375 -13.222656 24 -10.375 20.78125 -8.78125 L 26.375 0 Z M 9.421875 -12.8125 L 14.546875 -12.8125 C 16.023438 -12.8125 17.164062 -13.175781 17.96875 -13.90625 C 18.78125 -14.644531 19.1875 -15.707031 19.1875 -17.09375 C 19.1875 -18.46875 18.78125 -19.507812 17.96875 -20.21875 C 17.164062 -20.925781 16.023438 -21.28125 14.546875 -21.28125 L 9.421875 -21.28125 Z M 9.421875 -12.8125 "/></g></g></g><g fill="#ffffff" fill-opacity="1"><g transform="translate(281.643777, 247.692274)"><g><path d="M 16.375 -8.59375 L 16.375 0 L 9.65625 0 L 9.65625 -8.390625 L -0.1875 -26.59375 L 6.578125 -26.59375 L 13 -15.015625 L 19.265625 -26.59375 L 26.03125 -26.59375 Z M 16.375 -8.59375 "/></g></g></g><g fill="#ffffff" fill-opacity="1"><g transform="translate(122.299677, 274.233527)"><g><path d="M 11.296875 -11.328125 L 4 -11.328125 L 4 -7.734375 L 10.53125 -7.734375 L 10.53125 -5.703125 L 4 -5.703125 L 4 -2.015625 L 11.515625 -2.015625 L 11.515625 0 L 1.75 0 L 1.75 -13.359375 L 11.296875 -13.359375 Z M 11.296875 -11.328125 "/></g></g></g><g fill="#ffffff" fill-opacity="1"><g transform="translate(141.781824, 274.233527)"><g><path d="M 7.9375 -6.9375 L 12.796875 0 L 10.109375 0 L 6.5 -5.03125 L 2.921875 0 L 0.28125 0 L 5.15625 -6.84375 L 0.625 -13.359375 L 3.25 -13.359375 L 6.5 -8.71875 L 9.78125 -13.359375 L 12.421875 -13.359375 Z M 7.9375 -6.9375 "/></g></g></g><g fill="#ffffff" fill-opacity="1"><g transform="translate(161.950788, 274.233527)"><g><path d="M 1.75 -13.359375 L 7.078125 -13.359375 C 8.753906 -13.359375 10.050781 -12.957031 10.96875 -12.15625 C 11.894531 -11.363281 12.359375 -10.242188 12.359375 -8.796875 C 12.359375 -7.285156 11.894531 -6.113281 10.96875 -5.28125 C 10.050781 -4.445312 8.753906 -4.03125 7.078125 -4.03125 L 4 -4.03125 L 4 0 L 1.75 0 Z M 4 -11.328125 L 4 -6.046875 L 6.984375 -6.046875 C 9.128906 -6.046875 10.203125 -6.941406 10.203125 -8.734375 C 10.203125 -10.460938 9.128906 -11.328125 6.984375 -11.328125 Z M 4 -11.328125 "/></g></g></g><g fill="#ffffff" fill-opacity="1"><g transform="translate(181.757274, 274.233527)"><g><path d="M 10.21875 0 L 7.78125 -4.046875 C 7.65625 -4.035156 7.453125 -4.03125 7.171875 -4.03125 L 4 -4.03125 L 4 0 L 1.75 0 L 1.75 -13.359375 L 7.171875 -13.359375 C 8.878906 -13.359375 10.203125 -12.957031 11.140625 -12.15625 C 12.078125 -11.363281 12.546875 -10.242188 12.546875 -8.796875 C 12.546875 -7.722656 12.304688 -6.816406 11.828125 -6.078125 C 11.359375 -5.347656 10.675781 -4.8125 9.78125 -4.46875 L 12.78125 0 Z M 4 -6.046875 L 7.171875 -6.046875 C 9.335938 -6.046875 10.421875 -6.941406 10.421875 -8.734375 C 10.421875 -10.460938 9.335938 -11.328125 7.171875 -11.328125 L 4 -11.328125 Z M 4 -6.046875 "/></g></g></g><g fill="#ffffff" fill-opacity="1"><g transform="translate(202.517656, 274.233527)"><g><path d="M 11.296875 -11.328125 L 4 -11.328125 L 4 -7.734375 L 10.53125 -7.734375 L 10.53125 -5.703125 L 4 -5.703125 L 4 -2.015625 L 11.515625 -2.015625 L 11.515625 0 L 1.75 0 L 1.75 -13.359375 L 11.296875 -13.359375 Z M 11.296875 -11.328125 "/></g></g></g><g fill="#ffffff" fill-opacity="1"><g transform="translate(221.999807, 274.233527)"><g><path d="M 6.140625 -13.453125 C 7.867188 -13.453125 9.425781 -12.992188 10.8125 -12.078125 L 9.875 -10.09375 C 8.519531 -10.914062 7.21875 -11.328125 5.96875 -11.328125 C 5.289062 -11.328125 4.757812 -11.207031 4.375 -10.96875 C 3.988281 -10.726562 3.796875 -10.382812 3.796875 -9.9375 C 3.796875 -9.488281 3.972656 -9.109375 4.328125 -8.796875 C 4.679688 -8.492188 5.125 -8.265625 5.65625 -8.109375 C 6.195312 -7.960938 6.78125 -7.78125 7.40625 -7.5625 C 8.03125 -7.34375 8.609375 -7.109375 9.140625 -6.859375 C 9.671875 -6.609375 10.109375 -6.21875 10.453125 -5.6875 C 10.804688 -5.164062 10.984375 -4.53125 10.984375 -3.78125 C 10.984375 -2.601562 10.515625 -1.664062 9.578125 -0.96875 C 8.648438 -0.269531 7.441406 0.078125 5.953125 0.078125 C 4.929688 0.078125 3.941406 -0.109375 2.984375 -0.484375 C 2.035156 -0.867188 1.207031 -1.390625 0.5 -2.046875 L 1.46875 -3.984375 C 2.144531 -3.359375 2.882812 -2.878906 3.6875 -2.546875 C 4.5 -2.210938 5.265625 -2.046875 5.984375 -2.046875 C 6.773438 -2.046875 7.390625 -2.1875 7.828125 -2.46875 C 8.265625 -2.757812 8.484375 -3.15625 8.484375 -3.65625 C 8.484375 -4.113281 8.304688 -4.5 7.953125 -4.8125 C 7.597656 -5.125 7.148438 -5.351562 6.609375 -5.5 C 6.078125 -5.644531 5.5 -5.820312 4.875 -6.03125 C 4.257812 -6.25 3.679688 -6.472656 3.140625 -6.703125 C 2.609375 -6.941406 2.164062 -7.320312 1.8125 -7.84375 C 1.457031 -8.363281 1.28125 -8.992188 1.28125 -9.734375 C 1.28125 -10.859375 1.722656 -11.757812 2.609375 -12.4375 C 3.503906 -13.113281 4.679688 -13.453125 6.140625 -13.453125 Z M 6.140625 -13.453125 "/></g></g></g><g fill="#ffffff" fill-opacity="1"><g transform="translate(240.833302, 274.233527)"><g><path d="M 6.140625 -13.453125 C 7.867188 -13.453125 9.425781 -12.992188 10.8125 -12.078125 L 9.875 -10.09375 C 8.519531 -10.914062 7.21875 -11.328125 5.96875 -11.328125 C 5.289062 -11.328125 4.757812 -11.207031 4.375 -10.96875 C 3.988281 -10.726562 3.796875 -10.382812 3.796875 -9.9375 C 3.796875 -9.488281 3.972656 -9.109375 4.328125 -8.796875 C 4.679688 -8.492188 5.125 -8.265625 5.65625 -8.109375 C 6.195312 -7.960938 6.78125 -7.78125 7.40625 -7.5625 C 8.03125 -7.34375 8.609375 -7.109375 9.140625 -6.859375 C 9.671875 -6.609375 10.109375 -6.21875 10.453125 -5.6875 C 10.804688 -5.164062 10.984375 -4.53125 10.984375 -3.78125 C 10.984375 -2.601562 10.515625 -1.664062 9.578125 -0.96875 C 8.648438 -0.269531 7.441406 0.078125 5.953125 0.078125 C 4.929688 0.078125 3.941406 -0.109375 2.984375 -0.484375 C 2.035156 -0.867188 1.207031 -1.390625 0.5 -2.046875 L 1.46875 -3.984375 C 2.144531 -3.359375 2.882812 -2.878906 3.6875 -2.546875 C 4.5 -2.210938 5.265625 -2.046875 5.984375 -2.046875 C 6.773438 -2.046875 7.390625 -2.1875 7.828125 -2.46875 C 8.265625 -2.757812 8.484375 -3.15625 8.484375 -3.65625 C 8.484375 -4.113281 8.304688 -4.5 7.953125 -4.8125 C 7.597656 -5.125 7.148438 -5.351562 6.609375 -5.5 C 6.078125 -5.644531 5.5 -5.820312 4.875 -6.03125 C 4.257812 -6.25 3.679688 -6.472656 3.140625 -6.703125 C 2.609375 -6.941406 2.164062 -7.320312 1.8125 -7.84375 C 1.457031 -8.363281 1.28125 -8.992188 1.28125 -9.734375 C 1.28125 -10.859375 1.722656 -11.757812 2.609375 -12.4375 C 3.503906 -13.113281 4.679688 -13.453125 6.140625 -13.453125 Z M 6.140625 -13.453125 "/></g></g></g></svg>